<?xml version="1.0" encoding="UTF-8" standalone="no"?>
<!-- Created with Inkscape (http://www.inkscape.org/) -->

<svg
   xmlns:dc="http://purl.org/dc/elements/1.1/"
   xmlns:cc="http://creativecommons.org/ns#"
   xmlns:rdf="http://www.w3.org/1999/02/22-rdf-syntax-ns#"
   xmlns:svg="http://www.w3.org/2000/svg"
   xmlns="http://www.w3.org/2000/svg"
   xmlns:sodipodi="http://sodipodi.sourceforge.net/DTD/sodipodi-0.dtd"
   xmlns:inkscape="http://www.inkscape.org/namespaces/inkscape"
   width="500"
   height="500"
   viewBox="0 0 500.00001 500.00001"
   id="svg2"
   version="1.1"
   inkscape:version="0.91 r13725"
   sodipodi:docname="hero.svg">
  <defs
     id="defs4" />
  <sodipodi:namedview
     id="base"
     pagecolor="#811616"
     bordercolor="#666666"
     borderopacity="1.0"
     inkscape:pageopacity="1"
     inkscape:pageshadow="2"
     inkscape:zoom="0.98994949"
     inkscape:cx="79.127296"
     inkscape:cy="213.09496"
     inkscape:document-units="px"
     inkscape:current-layer="layer1"
     showgrid="false"
     units="px"
     showguides="false"
     inkscape:window-width="1920"
     inkscape:window-height="1016"
     inkscape:window-x="0"
     inkscape:window-y="27"
     inkscape:window-maximized="1" />
  <metadata
     id="metadata7">
    <rdf:RDF>
      <cc:Work
         rdf:about="">
        <dc:format>image/svg+xml</dc:format>
        <dc:type
           rdf:resource="http://purl.org/dc/dcmitype/StillImage" />
        <dc:title></dc:title>
      </cc:Work>
    </rdf:RDF>
  </metadata>
  <g
     inkscape:label="Layer 1"
     inkscape:groupmode="layer"
     id="layer1"
     transform="translate(0,-552.36216)">
    <path
       style="opacity:0.98000004;fill:#e9e9e9;fill-opacity:1"
       d="M 250 87.365234 A 162.63457 162.63457 0 0 0 87.365234 250 A 162.63457 162.63457 0 0 0 250 412.63477 A 162.63457 162.63457 0 0 0 412.63477 250 A 162.63457 162.63457 0 0 0 250 87.365234 z M 183.23047 137.41016 C 190.74096 145.50427 194.06386 152.02541 194.76953 157.8418 C 195.4752 163.6582 193.46435 168.42135 191.32422 172.5957 C 189.18409 176.77005 186.94846 180.49083 186.25391 184.63086 C 185.55935 188.77088 186.1886 193.50456 190.43359 200.27344 C 195.11638 207.74039 196.46176 213.84655 195.96484 219.13672 C 195.46793 224.42689 193.28504 228.69412 191.54102 232.86133 C 189.79699 237.02853 188.41792 241.0562 188.82422 246.29883 C 189.23052 251.54145 191.47297 258.15859 197.57812 267.20312 L 193.43359 270 C 187.01198 260.48663 184.33086 253.02125 183.83984 246.68555 C 183.34883 240.34984 185.09785 235.30401 186.92773 230.93164 C 188.75762 226.55926 190.59637 222.82145 190.98633 218.66992 C 191.37629 214.51839 190.47485 209.7474 186.19922 202.92969 C 181.48972 195.42014 180.42937 189.13857 181.32422 183.80469 C 182.21907 178.4708 184.85175 174.25702 186.87305 170.31445 C 188.89435 166.37188 190.33743 162.83634 189.80469 158.44531 C 189.27195 154.05428 186.66409 148.46188 179.56445 140.81055 L 183.23047 137.41016 z M 306.08789 137.41016 C 313.59838 145.50427 316.92128 152.02541 317.62695 157.8418 C 318.33263 163.6582 316.31982 168.42135 314.17969 172.5957 C 312.03956 176.77005 309.80589 180.49083 309.11133 184.63086 C 308.41677 188.77088 309.04602 193.50456 313.29102 200.27344 C 317.97381 207.74039 319.31918 213.84655 318.82227 219.13672 C 318.32535 224.42689 316.14246 228.69412 314.39844 232.86133 C 312.65442 237.02853 311.27534 241.0562 311.68164 246.29883 C 312.08794 251.54145 314.33037 258.15857 320.43555 267.20312 L 316.29102 270 C 309.8694 260.48663 307.18828 253.02125 306.69727 246.68555 C 306.20625 240.34984 307.95527 235.30401 309.78516 230.93164 C 311.61504 226.55926 313.45379 222.82145 313.84375 218.66992 C 314.23371 214.51839 313.33032 209.7474 309.05469 202.92969 C 304.34519 195.42014 303.28484 189.13857 304.17969 183.80469 C 305.07453 178.4708 307.70917 174.25702 309.73047 170.31445 C 311.75177 166.37188 313.19485 162.83634 312.66211 158.44531 C 312.12937 154.05428 309.52152 148.46188 302.42188 140.81055 L 306.08789 137.41016 z M 244.6582 141.53516 C 252.16869 149.62927 255.49159 156.15041 256.19727 161.9668 C 256.90294 167.7832 254.89208 172.54832 252.75195 176.72266 C 250.61182 180.89701 248.37815 184.61778 247.68359 188.75781 C 246.98904 192.89784 247.61829 197.62956 251.86328 204.39844 C 256.54607 211.86539 257.88949 217.97155 257.39258 223.26172 C 256.89566 228.55189 254.71277 232.81912 252.96875 236.98633 C 251.22473 241.15353 249.84761 245.1812 250.25391 250.42383 C 250.66021 255.66645 252.90068 262.28358 259.00586 271.32812 L 254.86328 274.12695 C 248.44167 264.61358 245.76054 257.14625 245.26953 250.81055 C 244.77852 244.47484 246.52753 239.42901 248.35742 235.05664 C 250.18731 230.68426 252.0241 226.94645 252.41406 222.79492 C 252.80402 218.64339 251.90258 213.8724 247.62695 207.05469 C 242.91746 199.54514 241.85711 193.26357 242.75195 187.92969 C 243.6468 182.5958 246.28143 178.38398 248.30273 174.44141 C 250.32403 170.49885 251.76711 166.96134 251.23438 162.57031 C 250.70163 158.17928 248.09378 152.58688 240.99414 144.93555 L 244.6582 141.53516 z M 215.46289 344.15625 C 224.49777 344.25185 231.90234 350.07813 231.90234 350.07812 C 231.90234 350.07812 221.7794 364.05403 208.84766 359.05859 C 195.91591 354.06315 192.22461 348.36523 192.22461 348.36523 C 192.22461 348.36523 202.28539 346.24693 211.50781 344.5 C 212.84824 344.24609 214.17219 344.14259 215.46289 344.15625 z M 284.53711 344.15625 C 285.82781 344.14259 287.15176 344.24609 288.49219 344.5 C 297.71461 346.24693 307.77539 348.36523 307.77539 348.36523 C 307.77539 348.36523 304.08409 354.06315 291.15234 359.05859 C 278.2206 364.05403 268.09766 350.07812 268.09766 350.07812 C 268.09766 350.07812 275.50223 344.25185 284.53711 344.15625 z "
       transform="translate(0,552.36216)"
       id="path4138" />
  </g>
</svg>
